<svg width="138" height="50" viewBox="0 0 138 50" fill="none" xmlns="http://www.w3.org/2000/svg">
<g clip-path="url(#clip0_1804_8320)">
<path d="M1.96387 6.05214V10.0875C1.96387 21.3033 1.98504 29.0489 8.4801 35.5699C10.9819 38.0829 17.0898 42.2003 17.0898 42.2003V2.31152C10.7369 2.31152 4.38401 5.16181 1.96387 6.05214Z" fill="#66BB6A"/>
<path d="M32.2162 6.00049C29.191 5.05849 23.4432 2.31152 17.0903 2.31152V42.1973C17.0903 42.1973 23.2254 38.0829 25.7302 35.5669C32.2374 29.0307 32.2162 22.1663 32.2162 11.5826V6.00049Z" fill="#388E3C"/>
<path d="M33.5318 6.04688H0.799316V8.7513H33.5318V6.04688Z" fill="url(#paint0_linear_1804_8320)"/>
<path fill-rule="evenodd" clip-rule="evenodd" d="M25.6218 28.3693C24.5344 27.3084 23.2519 26.4576 21.8373 25.8691C20.3494 25.25 18.7606 24.9398 17.1655 24.9479C16.4001 24.9518 15.6333 25.0289 14.8755 25.1803C12.5775 25.6395 10.4635 26.7614 8.7915 28.4077C9.10115 28.8888 9.44859 29.3586 9.83843 29.8189C10.3386 29.3034 10.8933 28.8391 11.495 28.4352C13.1746 27.3079 15.1464 26.701 17.1655 26.6891C17.1857 26.689 17.206 26.6889 17.2262 26.6889V26.692C19.9607 26.6952 22.5822 27.7875 24.516 29.7294C24.5311 29.7445 24.5461 29.7596 24.561 29.7748C24.9577 29.3117 25.3096 28.844 25.6218 28.3693ZM23.2593 31.1262C22.466 30.3111 21.5133 29.6612 20.455 29.2209C19.4075 28.7851 18.2886 28.5679 17.1655 28.576C16.6356 28.5799 16.1048 28.6338 15.5802 28.7387C13.9435 29.0657 12.4402 29.8728 11.2602 31.0581C11.2215 31.0969 11.1833 31.1361 11.1454 31.1756C11.5071 31.5037 11.9485 31.8642 12.4263 32.2331C12.7396 31.9182 13.0843 31.6333 13.4564 31.3836C14.5554 30.646 15.8446 30.2471 17.1655 30.2352C17.1857 30.235 17.206 30.2349 17.2262 30.2349C19.0043 30.2373 20.7098 30.9397 21.9774 32.1899C22.4588 31.8176 22.9011 31.4548 23.2593 31.1262ZM20.5027 33.2797C19.6328 32.4988 18.4847 32.0241 17.2262 32.0241C17.2059 32.0241 17.1857 32.0242 17.1655 32.0244C15.9075 32.0397 14.7631 32.5294 13.9015 33.3236C15.5671 34.5115 17.1655 35.533 17.1655 35.533V32.0244L17.1655 35.5309C17.1655 35.5309 18.8096 34.4856 20.5027 33.2797Z" fill="#FAFAFA"/>
<path d="M16.9909 22.0756C19.7443 22.0756 21.9764 19.8335 21.9764 17.0678C21.9764 14.3021 19.7443 12.0601 16.9909 12.0601C14.2375 12.0601 12.0054 14.3021 12.0054 17.0678C12.0054 19.8335 14.2375 22.0756 16.9909 22.0756Z" fill="#FAFAFA"/>
<path d="M32.2161 5.86432V2.76486C32.2161 1.64967 30.6823 0.0908203 29.3119 0.0908203H4.61733C3.24995 0.0908203 1.96729 1.64967 1.96729 2.76486V5.86432H32.2191H32.2161Z" fill="#E0E0E0"/>
<path d="M5.69751 4.23206C6.18871 4.23206 6.58691 3.83208 6.58691 3.33869C6.58691 2.84529 6.18871 2.44531 5.69751 2.44531C5.2063 2.44531 4.80811 2.84529 4.80811 3.33869C4.80811 3.83208 5.2063 4.23206 5.69751 4.23206Z" fill="white"/>
<path d="M8.95239 4.23206C9.44359 4.23206 9.84179 3.83208 9.84179 3.33869C9.84179 2.84529 9.44359 2.44531 8.95239 2.44531C8.46119 2.44531 8.06299 2.84529 8.06299 3.33869C8.06299 3.83208 8.46119 4.23206 8.95239 4.23206Z" fill="white"/>
</g>
<path d="M45.7972 18.2668C45.1057 18.2668 44.4408 18.156 43.8026 17.9344C43.1731 17.7039 42.6856 17.4113 42.3398 17.0567L42.7255 16.2988C43.0535 16.6179 43.4923 16.8883 44.0419 17.1099C44.6004 17.3227 45.1855 17.4291 45.7972 17.4291C46.3823 17.4291 46.8566 17.3581 47.22 17.2163C47.5924 17.0656 47.8627 16.8661 48.0312 16.6179C48.2085 16.3697 48.2971 16.0949 48.2971 15.7935C48.2971 15.43 48.1908 15.1374 47.978 14.9158C47.7741 14.6942 47.5037 14.5213 47.1668 14.3972C46.83 14.2642 46.4576 14.149 46.0498 14.0515C45.6421 13.954 45.2343 13.852 44.8265 13.7456C44.4187 13.6304 44.0419 13.4797 43.6962 13.2935C43.3593 13.1073 43.0845 12.8636 42.8717 12.5621C42.6678 12.2519 42.5659 11.8485 42.5659 11.3521C42.5659 10.8911 42.6856 10.47 42.9249 10.0888C43.1731 9.69874 43.5499 9.38846 44.0552 9.15797C44.5605 8.91861 45.2077 8.79894 45.9967 8.79894C46.5197 8.79894 47.0383 8.87429 47.5525 9.025C48.0666 9.16684 48.5099 9.3663 48.8822 9.62338L48.5498 10.4079C48.1509 10.142 47.7253 9.94696 47.2732 9.82285C46.83 9.69874 46.4 9.63668 45.9834 9.63668C45.4249 9.63668 44.9639 9.71204 44.6004 9.86274C44.2369 10.0134 43.9666 10.2173 43.7893 10.4744C43.6208 10.7226 43.5366 11.0063 43.5366 11.3255C43.5366 11.6889 43.6386 11.9815 43.8425 12.2031C44.0552 12.4247 44.33 12.5976 44.6669 12.7217C45.0126 12.8458 45.3894 12.9566 45.7972 13.0542C46.205 13.1517 46.6083 13.2581 47.0073 13.3733C47.4151 13.4885 47.7874 13.6392 48.1243 13.8254C48.47 14.0027 48.7448 14.2421 48.9487 14.5435C49.1615 14.8449 49.2679 15.2394 49.2679 15.727C49.2679 16.1791 49.1437 16.6002 48.8955 16.9902C48.6473 17.3714 48.2661 17.6817 47.7519 17.9211C47.2466 18.1516 46.595 18.2668 45.7972 18.2668ZM55.5873 18.187V16.6445L55.5474 16.3918V13.8121C55.5474 13.2182 55.379 12.7616 55.0421 12.4425C54.7141 12.1233 54.2221 11.9638 53.5661 11.9638C53.114 11.9638 52.684 12.0391 52.2762 12.1898C51.8684 12.3405 51.5227 12.54 51.239 12.7882L50.8135 12.0834C51.1681 11.782 51.5936 11.5515 52.0901 11.392C52.5865 11.2235 53.1095 11.1393 53.6592 11.1393C54.5634 11.1393 55.2593 11.3654 55.7469 11.8175C56.2433 12.2607 56.4915 12.9389 56.4915 13.852V18.187H55.5873ZM53.1805 18.2535C52.6574 18.2535 52.2009 18.1693 51.8108 18.0008C51.4296 17.8235 51.1371 17.5842 50.9332 17.2828C50.7293 16.9725 50.6273 16.6179 50.6273 16.219C50.6273 15.8555 50.7115 15.5275 50.88 15.235C51.0573 14.9335 51.341 14.6942 51.731 14.5169C52.1299 14.3307 52.6618 14.2376 53.3267 14.2376H55.7336V14.9424H53.3533C52.6796 14.9424 52.2097 15.0621 51.9438 15.3014C51.6867 15.5408 51.5582 15.8378 51.5582 16.1924C51.5582 16.5913 51.7133 16.9104 52.0236 17.1498C52.3338 17.3892 52.7682 17.5088 53.3267 17.5088C53.8586 17.5088 54.3152 17.3892 54.6964 17.1498C55.0864 16.9016 55.3701 16.547 55.5474 16.086L55.7602 16.7376C55.5829 17.1986 55.2726 17.5665 54.8294 17.8413C54.395 18.1161 53.8453 18.2535 53.1805 18.2535ZM59.2155 18.187V10.3282C59.2155 9.7076 59.3972 9.20673 59.7607 8.82553C60.1241 8.44434 60.6472 8.25374 61.3298 8.25374C61.5957 8.25374 61.8528 8.2892 62.101 8.36012C62.3493 8.43104 62.5576 8.54185 62.726 8.69256L62.4069 9.39733C62.2739 9.28208 62.1188 9.19786 61.9415 9.14467C61.7642 9.08262 61.5736 9.05159 61.3697 9.05159C60.9707 9.05159 60.6649 9.1624 60.4521 9.38403C60.2394 9.60566 60.133 9.93366 60.133 10.368V11.4319L60.1596 11.8707V18.187H59.2155ZM57.9655 11.9904V11.2058H62.2872V11.9904H57.9655ZM66.4105 18.2535C65.6835 18.2535 65.0453 18.1028 64.4956 17.8014C63.946 17.4911 63.516 17.07 63.2058 16.5381C62.8955 15.9973 62.7404 15.3812 62.7404 14.6898C62.7404 13.9983 62.8866 13.3866 63.1792 12.8547C63.4806 12.3228 63.8884 11.9061 64.4026 11.6047C64.9256 11.2944 65.5107 11.1393 66.1578 11.1393C66.8138 11.1393 67.3945 11.29 67.8998 11.5914C68.414 11.884 68.8173 12.3006 69.1099 12.8414C69.4024 13.3733 69.5487 13.9894 69.5487 14.6898C69.5487 14.7341 69.5443 14.7828 69.5354 14.836C69.5354 14.8804 69.5354 14.9291 69.5354 14.9823H63.4584V14.2775H69.0301L68.6578 14.5568C68.6578 14.0515 68.547 13.6038 68.3253 13.2137C68.1126 12.8148 67.82 12.5045 67.4477 12.2829C67.0754 12.0613 66.6454 11.9505 66.1578 11.9505C65.6791 11.9505 65.2492 12.0613 64.868 12.2829C64.4868 12.5045 64.1898 12.8148 63.977 13.2137C63.7643 13.6127 63.6579 14.0692 63.6579 14.5834V14.7296C63.6579 15.2615 63.7731 15.7314 64.0036 16.1392C64.243 16.5381 64.571 16.8528 64.9876 17.0833C65.4132 17.3049 65.8963 17.4158 66.4371 17.4158C66.8626 17.4158 67.2571 17.3404 67.6206 17.1897C67.9929 17.039 68.312 16.8085 68.578 16.4982L69.1099 17.1099C68.7996 17.4822 68.4095 17.7659 67.9397 17.961C67.4787 18.156 66.969 18.2535 66.4105 18.2535ZM75.1501 18.187V8.87872H79.166C80.2032 8.87872 81.0055 9.08705 81.5728 9.50371C82.149 9.92036 82.4372 10.5099 82.4372 11.2723C82.4372 11.7776 82.3175 12.2031 82.0781 12.5488C81.8476 12.8946 81.5285 13.1561 81.1207 13.3334C80.7218 13.5107 80.283 13.5994 79.8042 13.5994L80.0303 13.2802C80.6243 13.2802 81.134 13.3733 81.5595 13.5595C81.9939 13.7368 82.3308 14.0071 82.5701 14.3706C82.8095 14.7252 82.9292 15.1685 82.9292 15.7004C82.9292 16.4894 82.6366 17.101 82.0515 17.5354C81.4753 17.9698 80.6021 18.187 79.4319 18.187H75.1501ZM76.1341 17.3759H79.4186C80.2342 17.3759 80.8592 17.2385 81.2936 16.9636C81.728 16.68 81.9451 16.2323 81.9451 15.6206C81.9451 15.0178 81.728 14.5789 81.2936 14.3041C80.8592 14.0204 80.2342 13.8786 79.4186 13.8786H76.0277V13.0675H79.0995C79.8441 13.0675 80.4204 12.9256 80.8282 12.6419C81.2448 12.3582 81.4531 11.9372 81.4531 11.3787C81.4531 10.8113 81.2448 10.3902 80.8282 10.1154C80.4204 9.83171 79.8441 9.68987 79.0995 9.68987H76.1341V17.3759ZM84.9757 18.187V11.2058H85.88V13.1073L85.7869 12.7749C85.9819 12.243 86.3099 11.8396 86.7709 11.5648C87.2319 11.2811 87.8037 11.1393 88.4863 11.1393V12.0568C88.4508 12.0568 88.4154 12.0568 88.3799 12.0568C88.3445 12.048 88.309 12.0435 88.2735 12.0435C87.5377 12.0435 86.9615 12.2696 86.5449 12.7217C86.1282 13.165 85.9199 13.7988 85.9199 14.6233V18.187H84.9757ZM92.9898 18.2535C92.3161 18.2535 91.7088 18.1028 91.168 17.8014C90.6361 17.4911 90.215 17.07 89.9048 16.5381C89.5945 15.9973 89.4394 15.3812 89.4394 14.6898C89.4394 13.9894 89.5945 13.3733 89.9048 12.8414C90.215 12.3095 90.6361 11.8928 91.168 11.5914C91.6999 11.29 92.3072 11.1393 92.9898 11.1393C93.6813 11.1393 94.293 11.29 94.8249 11.5914C95.3656 11.8928 95.7867 12.3095 96.0881 12.8414C96.3984 13.3733 96.5535 13.9894 96.5535 14.6898C96.5535 15.3812 96.3984 15.9973 96.0881 16.5381C95.7867 17.07 95.3656 17.4911 94.8249 17.8014C94.2841 18.1028 93.6724 18.2535 92.9898 18.2535ZM92.9898 17.4158C93.4951 17.4158 93.9428 17.3049 94.3329 17.0833C94.7229 16.8528 95.0288 16.5337 95.2504 16.1259C95.4809 15.7092 95.5961 15.2305 95.5961 14.6898C95.5961 14.1401 95.4809 13.6614 95.2504 13.2536C95.0288 12.8458 94.7229 12.5311 94.3329 12.3095C93.9428 12.079 93.4995 11.9638 93.0031 11.9638C92.5067 11.9638 92.0634 12.079 91.6733 12.3095C91.2833 12.5311 90.973 12.8458 90.7425 13.2536C90.512 13.6614 90.3968 14.1401 90.3968 14.6898C90.3968 15.2305 90.512 15.7092 90.7425 16.1259C90.973 16.5337 91.2833 16.8528 91.6733 17.0833C92.0634 17.3049 92.5022 17.4158 92.9898 17.4158ZM99.7091 18.187L97.0762 11.2058H97.9804L100.374 17.6817H99.9618L102.422 11.2058H103.233L105.666 17.6817H105.254L107.688 11.2058H108.552L105.906 18.187H105.015L102.674 12.0967H102.954L100.6 18.187H99.7091ZM111.771 18.2535C111.194 18.2535 110.649 18.1737 110.135 18.0141C109.621 17.8457 109.217 17.6374 108.925 17.3892L109.35 16.6445C109.634 16.8573 109.998 17.0434 110.441 17.203C110.884 17.3537 111.35 17.4291 111.837 17.4291C112.502 17.4291 112.981 17.3271 113.273 17.1232C113.566 16.9104 113.712 16.6312 113.712 16.2855C113.712 16.0284 113.628 15.8289 113.459 15.6871C113.3 15.5364 113.087 15.4256 112.821 15.3546C112.555 15.2748 112.258 15.2084 111.93 15.1552C111.602 15.102 111.274 15.0399 110.946 14.969C110.627 14.8981 110.334 14.7961 110.069 14.6632C109.803 14.5213 109.585 14.3307 109.417 14.0914C109.257 13.852 109.178 13.5329 109.178 13.1339C109.178 12.7527 109.284 12.4114 109.497 12.11C109.71 11.8086 110.02 11.5737 110.428 11.4053C110.844 11.228 111.35 11.1393 111.943 11.1393C112.396 11.1393 112.848 11.2014 113.3 11.3255C113.752 11.4407 114.124 11.5959 114.417 11.7909L114.005 12.5488C113.694 12.3361 113.362 12.1854 113.007 12.0967C112.653 11.9992 112.298 11.9505 111.943 11.9505C111.314 11.9505 110.849 12.0613 110.547 12.2829C110.255 12.4957 110.108 12.7705 110.108 13.1073C110.108 13.3733 110.188 13.5816 110.348 13.7323C110.516 13.883 110.733 14.0027 110.999 14.0914C111.274 14.1711 111.571 14.2376 111.89 14.2908C112.218 14.344 112.542 14.4105 112.861 14.4903C113.189 14.5612 113.486 14.6632 113.752 14.7961C114.027 14.9202 114.244 15.102 114.404 15.3413C114.572 15.5718 114.656 15.8777 114.656 16.2589C114.656 16.6667 114.541 17.0213 114.31 17.3227C114.089 17.6152 113.761 17.8457 113.326 18.0141C112.901 18.1737 112.382 18.2535 111.771 18.2535ZM116.389 18.187V11.2058H117.333V18.187H116.389ZM116.867 9.66328C116.672 9.66328 116.508 9.59679 116.375 9.46381C116.242 9.33084 116.176 9.17127 116.176 8.9851C116.176 8.79894 116.242 8.6438 116.375 8.51969C116.508 8.38671 116.672 8.32022 116.867 8.32022C117.062 8.32022 117.226 8.38228 117.359 8.50639C117.492 8.6305 117.559 8.78564 117.559 8.97181C117.559 9.16684 117.492 9.33084 117.359 9.46381C117.235 9.59679 117.071 9.66328 116.867 9.66328ZM123.523 11.1393C124.091 11.1393 124.587 11.2501 125.013 11.4717C125.447 11.6845 125.784 12.0125 126.023 12.4558C126.272 12.899 126.396 13.4575 126.396 14.1313V18.187H125.452V14.2243C125.452 13.4885 125.265 12.9345 124.893 12.5621C124.53 12.1809 124.015 11.9904 123.351 11.9904C122.854 11.9904 122.42 12.0923 122.047 12.2962C121.684 12.4912 121.4 12.7793 121.196 13.1605C121.001 13.5329 120.904 13.985 120.904 14.5169V18.187H119.96V11.2058H120.864V13.1206L120.718 12.7616C120.939 12.2563 121.294 11.8618 121.782 11.5781C122.269 11.2856 122.85 11.1393 123.523 11.1393ZM131.925 20.8332C131.286 20.8332 130.675 20.7401 130.09 20.554C129.504 20.3678 129.03 20.1019 128.667 19.7561L129.145 19.0381C129.473 19.3306 129.877 19.5611 130.356 19.7295C130.843 19.9068 131.357 19.9955 131.898 19.9955C132.785 19.9955 133.436 19.7872 133.853 19.3705C134.269 18.9627 134.478 18.3244 134.478 17.4556V15.7137L134.611 14.5169L134.518 13.3201V11.2058H135.422V17.336C135.422 18.5416 135.125 19.4237 134.531 19.9822C133.946 20.5495 133.077 20.8332 131.925 20.8332ZM131.752 17.9211C131.087 17.9211 130.488 17.7792 129.957 17.4955C129.425 17.203 129.004 16.7996 128.693 16.2855C128.392 15.7713 128.241 15.1818 128.241 14.5169C128.241 13.852 128.392 13.2669 128.693 12.7616C129.004 12.2474 129.425 11.8485 129.957 11.5648C130.488 11.2811 131.087 11.1393 131.752 11.1393C132.372 11.1393 132.931 11.2678 133.427 11.5249C133.924 11.782 134.318 12.1632 134.611 12.6685C134.903 13.1738 135.05 13.79 135.05 14.5169C135.05 15.2438 134.903 15.8599 134.611 16.3652C134.318 16.8706 133.924 17.2562 133.427 17.5221C132.931 17.7881 132.372 17.9211 131.752 17.9211ZM131.845 17.0833C132.359 17.0833 132.816 16.9769 133.214 16.7642C133.613 16.5425 133.928 16.2411 134.159 15.8599C134.389 15.4699 134.504 15.0222 134.504 14.5169C134.504 14.0116 134.389 13.5683 134.159 13.1871C133.928 12.8059 133.613 12.509 133.214 12.2962C132.816 12.0746 132.359 11.9638 131.845 11.9638C131.34 11.9638 130.883 12.0746 130.475 12.2962C130.076 12.509 129.762 12.8059 129.531 13.1871C129.309 13.5683 129.199 14.0116 129.199 14.5169C129.199 15.0222 129.309 15.4699 129.531 15.8599C129.762 16.2411 130.076 16.5425 130.475 16.7642C130.883 16.9769 131.34 17.0833 131.845 17.0833Z" fill="white"/>
<path d="M47.3131 34.7133C46.5773 34.7133 45.8991 34.598 45.2786 34.3675C44.6669 34.1282 44.1306 33.7913 43.6696 33.3569C43.2175 32.9225 42.8629 32.4128 42.6058 31.8277C42.3576 31.2426 42.2334 30.5999 42.2334 29.8996C42.2334 29.1992 42.3576 28.5565 42.6058 27.9714C42.8629 27.3863 43.2219 26.8766 43.6829 26.4422C44.1439 26.0078 44.6846 25.6754 45.3052 25.4449C45.9257 25.2055 46.6083 25.0859 47.353 25.0859C48.1775 25.0859 48.9177 25.2233 49.5737 25.4981C50.2386 25.7729 50.7971 26.1718 51.2492 26.6949L49.8662 27.9714C49.5294 27.6168 49.1615 27.3553 48.7625 27.1869C48.3636 27.0096 47.9292 26.9209 47.4594 26.9209C47.0073 26.9209 46.595 26.9918 46.2227 27.1337C45.8504 27.2755 45.5268 27.4794 45.252 27.7454C44.986 28.0113 44.7777 28.326 44.627 28.6895C44.4852 29.053 44.4142 29.4563 44.4142 29.8996C44.4142 30.334 44.4852 30.7329 44.627 31.0963C44.7777 31.4598 44.986 31.779 45.252 32.0538C45.5268 32.3197 45.846 32.5236 46.2094 32.6655C46.5817 32.8073 46.9895 32.8782 47.4328 32.8782C47.8583 32.8782 48.2705 32.8117 48.6695 32.6788C49.0773 32.5369 49.4718 32.302 49.8529 31.974L51.0763 33.5298C50.571 33.911 49.9815 34.2035 49.3077 34.4074C48.6429 34.6113 47.978 34.7133 47.3131 34.7133ZM49.1083 33.2506V29.7533H51.0763V33.5298L49.1083 33.2506ZM56.3353 34.6601C55.5729 34.6601 54.8947 34.5005 54.3008 34.1814C53.7157 33.8622 53.2503 33.4279 52.9045 32.8782C52.5677 32.3197 52.3992 31.6859 52.3992 30.9767C52.3992 30.2586 52.5677 29.6247 52.9045 29.0751C53.2503 28.5166 53.7157 28.0822 54.3008 27.772C54.8947 27.4528 55.5729 27.2932 56.3353 27.2932C57.0888 27.2932 57.7626 27.4528 58.3565 27.772C58.9505 28.0822 59.4159 28.5122 59.7528 29.0618C60.0896 29.6115 60.2581 30.2497 60.2581 30.9767C60.2581 31.6859 60.0896 32.3197 59.7528 32.8782C59.4159 33.4279 58.9505 33.8622 58.3565 34.1814C57.7626 34.5005 57.0888 34.6601 56.3353 34.6601ZM56.3353 32.958C56.681 32.958 56.9913 32.8782 57.2661 32.7186C57.5409 32.5591 57.7581 32.333 57.9177 32.0405C58.0773 31.7391 58.1571 31.3845 58.1571 30.9767C58.1571 30.56 58.0773 30.2054 57.9177 29.9129C57.7581 29.6203 57.5409 29.3943 57.2661 29.2347C56.9913 29.0751 56.681 28.9953 56.3353 28.9953C55.9896 28.9953 55.6793 29.0751 55.4045 29.2347C55.1297 29.3943 54.908 29.6203 54.7396 29.9129C54.58 30.2054 54.5002 30.56 54.5002 30.9767C54.5002 31.3845 54.58 31.7391 54.7396 32.0405C54.908 32.333 55.1297 32.5591 55.4045 32.7186C55.6793 32.8782 55.9896 32.958 56.3353 32.958ZM65.0488 34.6601C64.2864 34.6601 63.6083 34.5005 63.0143 34.1814C62.4292 33.8622 61.9638 33.4279 61.6181 32.8782C61.2812 32.3197 61.1128 31.6859 61.1128 30.9767C61.1128 30.2586 61.2812 29.6247 61.6181 29.0751C61.9638 28.5166 62.4292 28.0822 63.0143 27.772C63.6083 27.4528 64.2864 27.2932 65.0488 27.2932C65.8024 27.2932 66.4761 27.4528 67.0701 27.772C67.664 28.0822 68.1294 28.5122 68.4663 29.0618C68.8032 29.6115 68.9716 30.2497 68.9716 30.9767C68.9716 31.6859 68.8032 32.3197 68.4663 32.8782C68.1294 33.4279 67.664 33.8622 67.0701 34.1814C66.4761 34.5005 65.8024 34.6601 65.0488 34.6601ZM65.0488 32.958C65.3946 32.958 65.7048 32.8782 65.9797 32.7186C66.2545 32.5591 66.4717 32.333 66.6312 32.0405C66.7908 31.7391 66.8706 31.3845 66.8706 30.9767C66.8706 30.56 66.7908 30.2054 66.6312 29.9129C66.4717 29.6203 66.2545 29.3943 65.9797 29.2347C65.7048 29.0751 65.3946 28.9953 65.0488 28.9953C64.7031 28.9953 64.3928 29.0751 64.118 29.2347C63.8432 29.3943 63.6216 29.6203 63.4531 29.9129C63.2936 30.2054 63.2138 30.56 63.2138 30.9767C63.2138 31.3845 63.2936 31.7391 63.4531 32.0405C63.6216 32.333 63.8432 32.5591 64.118 32.7186C64.3928 32.8782 64.7031 32.958 65.0488 32.958ZM73.7225 37.2398C73.0487 37.2398 72.3972 37.1556 71.7677 36.9872C71.1472 36.8276 70.6286 36.5838 70.2119 36.2558L71.0364 34.7665C71.3378 35.0147 71.719 35.2097 72.18 35.3516C72.6498 35.5023 73.1108 35.5776 73.5629 35.5776C74.2987 35.5776 74.8306 35.4136 75.1586 35.0856C75.4955 34.7576 75.6639 34.27 75.6639 33.6229V32.5458L75.7969 30.7506L75.7703 28.9421V27.3996H77.7383V33.3569C77.7383 34.6867 77.3926 35.6663 76.7011 36.2957C76.0097 36.9251 75.0168 37.2398 73.7225 37.2398ZM73.4033 34.208C72.7385 34.208 72.1356 34.0661 71.5949 33.7825C71.063 33.4899 70.633 33.0865 70.305 32.5724C69.9859 32.0493 69.8263 31.4421 69.8263 30.7506C69.8263 30.0503 69.9859 29.443 70.305 28.9288C70.633 28.4058 71.063 28.0024 71.5949 27.7188C72.1356 27.4351 72.7385 27.2932 73.4033 27.2932C74.0062 27.2932 74.5381 27.4174 74.999 27.6656C75.46 27.9049 75.8191 28.2817 76.0761 28.7959C76.3332 29.3012 76.4618 29.9528 76.4618 30.7506C76.4618 31.5396 76.3332 32.1912 76.0761 32.7054C75.8191 33.2107 75.46 33.5874 74.999 33.8356C74.5381 34.0839 74.0062 34.208 73.4033 34.208ZM73.8156 32.5059C74.179 32.5059 74.5026 32.435 74.7863 32.2931C75.07 32.1424 75.2916 31.9341 75.4512 31.6681C75.6107 31.4022 75.6905 31.0963 75.6905 30.7506C75.6905 30.396 75.6107 30.0902 75.4512 29.8331C75.2916 29.5671 75.07 29.3632 74.7863 29.2214C74.5026 29.0707 74.179 28.9953 73.8156 28.9953C73.4521 28.9953 73.1285 29.0707 72.8448 29.2214C72.5612 29.3632 72.3351 29.5671 72.1667 29.8331C72.0071 30.0902 71.9273 30.396 71.9273 30.7506C71.9273 31.0963 72.0071 31.4022 72.1667 31.6681C72.3351 31.9341 72.5612 32.1424 72.8448 32.2931C73.1285 32.435 73.4521 32.5059 73.8156 32.5059ZM79.6691 34.5537V24.6869H81.7435V34.5537H79.6691ZM87.2192 34.6601C86.4036 34.6601 85.6855 34.5005 85.065 34.1814C84.4533 33.8622 83.979 33.4279 83.6421 32.8782C83.3053 32.3197 83.1368 31.6859 83.1368 30.9767C83.1368 30.2586 83.3008 29.6247 83.6288 29.0751C83.9657 28.5166 84.4223 28.0822 84.9985 27.772C85.5747 27.4528 86.2263 27.2932 86.9532 27.2932C87.6536 27.2932 88.283 27.444 88.8415 27.7454C89.4088 28.0379 89.8565 28.4634 90.1845 29.0219C90.5125 29.5716 90.6765 30.232 90.6765 31.0033C90.6765 31.083 90.6721 31.1761 90.6633 31.2825C90.6544 31.38 90.6455 31.4731 90.6367 31.5618H84.8256V30.3517H89.5463L88.7484 30.7107C88.7484 30.3384 88.673 30.0148 88.5223 29.74C88.3716 29.4652 88.1633 29.2524 87.8974 29.1017C87.6314 28.9421 87.3211 28.8624 86.9665 28.8624C86.6119 28.8624 86.2972 28.9421 86.0224 29.1017C85.7565 29.2524 85.5481 29.4696 85.3974 29.7533C85.2467 30.0281 85.1714 30.3561 85.1714 30.7373V31.0565C85.1714 31.4465 85.2556 31.7923 85.424 32.0937C85.6013 32.3862 85.8451 32.6123 86.1554 32.7718C86.4745 32.9225 86.8469 32.9979 87.2724 32.9979C87.6536 32.9979 87.986 32.9403 88.2697 32.825C88.5622 32.7098 88.8282 32.5369 89.0675 32.3064L90.1712 33.5032C89.8432 33.8755 89.431 34.1636 88.9346 34.3675C88.4381 34.5626 87.8663 34.6601 87.2192 34.6601Z" fill="white"/>
<defs>
<linearGradient id="paint0_linear_1804_8320" x1="17.1655" y1="5.62146" x2="17.1655" y2="7.85489" gradientUnits="userSpaceOnUse">
<stop stop-color="#263238" stop-opacity="0.35"/>
<stop offset="0.42" stop-color="#263238" stop-opacity="0.15"/>
<stop offset="0.89" stop-color="#263238" stop-opacity="0.02"/>
<stop offset="1" stop-color="#263238" stop-opacity="0"/>
</linearGradient>
<clipPath id="clip0_1804_8320">
<rect width="32.7324" height="49.0987" fill="white" transform="translate(0.799316 0.0727539)"/>
</clipPath>
</defs>
</svg>
