<svg width="134" height="33" viewBox="0 0 134 33" fill="none" xmlns="http://www.w3.org/2000/svg">
<path fill-rule="evenodd" clip-rule="evenodd" d="M3.66535 2.2334C1.64103 2.2334 0 3.83627 0 5.81351V27.2942C0 29.2714 1.64103 30.8743 3.66535 30.8743H40.3189C42.3432 30.8743 43.9842 29.2714 43.9842 27.2942V5.81351C43.9842 3.83627 42.3432 2.2334 40.3189 2.2334H3.66535ZM24.0638 24.8037L19.7079 20.0821L20.9297 19.0444L17.8486 15.7237L19.0704 14.686L15.9894 11.3653L20.8234 7.16254L22.3639 8.77099L25.02 6.53991L26.5605 8.09648L27.5698 7.21442C27.4636 7.16254 27.344 7.09769 27.2245 7.03284C27.105 6.96799 26.9854 6.9031 26.8792 6.85122C25.3387 6.22859 23.6919 5.81351 21.939 5.81351C15.83 5.81351 10.8367 10.6389 10.8367 16.5538C10.8367 22.4688 15.83 27.2942 21.9921 27.2942C24.0107 27.2942 25.8699 26.7753 27.4635 25.8933C27.9947 25.582 28.4727 25.2707 28.9508 24.9594L26.7198 22.5207L24.0638 24.8037ZM18.008 11.5209L20.3984 14.0633L23.0545 11.7804L20.6641 9.23796L18.008 11.5209ZM24.9669 16.1388L22.5764 13.5964L19.9204 15.8793L22.3108 18.4736L24.9669 16.1388ZM24.4356 18.0066L26.8261 20.549L24.17 22.8839L21.7796 20.3415L24.4356 18.0066ZM24.6481 12.1954L22.8951 10.2757L24.8606 8.56345L26.6667 10.4832L24.6481 12.1954ZM28.4728 14.3228L26.6667 12.403L24.7013 14.1671L26.5074 16.035L28.4728 14.3228ZM28.3666 16.4501L30.1727 18.3698L28.2072 20.134L26.4011 18.1623L28.3666 16.4501ZM30.279 12.0398L28.9509 13.1813L30.1727 14.4784L31.4476 13.3369L30.279 12.0398ZM31.8195 18.2661L30.6508 16.9689L31.9257 15.8274L33.1475 17.1246L31.8195 18.2661ZM27.2511 9.39362L28.4728 10.6908L29.7477 9.54928L28.5791 8.25214L27.2511 9.39362ZM29.9602 23.9735L28.1541 22.0537L30.1196 20.3415L31.9257 22.2613L29.9602 23.9735Z" fill="#137ABE"/>
<path d="M56.3016 13.187L53.2032 6.20579H54.1873L57.0329 12.6817H56.5675L59.4531 6.20579H60.3839L57.2723 13.187H56.3016ZM64.4841 13.2535C63.7572 13.2535 63.1189 13.1028 62.5693 12.8014C62.0197 12.4911 61.5897 12.07 61.2794 11.5381C60.9692 10.9973 60.814 10.3812 60.814 9.68975C60.814 8.99828 60.9603 8.38659 61.2528 7.85469C61.5542 7.32279 61.962 6.90613 62.4762 6.60472C62.9992 6.29444 63.5843 6.13931 64.2315 6.13931C64.8875 6.13931 65.4682 6.29001 65.9735 6.59142C66.4876 6.88397 66.891 7.30063 67.1835 7.84139C67.4761 8.3733 67.6224 8.98942 67.6224 9.68975C67.6224 9.73408 67.6179 9.78284 67.6091 9.83603C67.6091 9.88035 67.6091 9.92911 67.6091 9.9823H61.5321V9.27753H67.1038L66.7314 9.55678C66.7314 9.05147 66.6206 8.60379 66.399 8.21373C66.1862 7.8148 65.8937 7.50452 65.5213 7.2829C65.149 7.06127 64.7191 6.95046 64.2315 6.95046C63.7528 6.95046 63.3228 7.06127 62.9416 7.2829C62.5604 7.50452 62.2634 7.8148 62.0507 8.21373C61.8379 8.61265 61.7315 9.0692 61.7315 9.58337V9.72965C61.7315 10.2615 61.8468 10.7314 62.0773 11.1392C62.3166 11.5381 62.6446 11.8528 63.0613 12.0833C63.4868 12.3049 63.97 12.4158 64.5107 12.4158C64.9363 12.4158 65.3307 12.3404 65.6942 12.1897C66.0665 12.039 66.3857 11.8085 66.6516 11.4982L67.1835 12.1099C66.8733 12.4822 66.4832 12.7659 66.0134 12.961C65.5524 13.156 65.0426 13.2535 64.4841 13.2535ZM69.5441 13.187V6.20579H70.4483V8.10734L70.3552 7.77491C70.5502 7.243 70.8783 6.83964 71.3392 6.56483C71.8002 6.28115 72.372 6.13931 73.0546 6.13931V7.05684C73.0192 7.05684 72.9837 7.05684 72.9482 7.05684C72.9128 7.04797 72.8773 7.04354 72.8419 7.04354C72.1061 7.04354 71.5298 7.2696 71.1132 7.72172C70.6965 8.16497 70.4882 8.79882 70.4882 9.62327V13.187H69.5441ZM74.7774 13.187V6.20579H75.7215V13.187H74.7774ZM75.2561 4.66328C75.0611 4.66328 74.8971 4.59679 74.7641 4.46381C74.6311 4.33084 74.5646 4.17127 74.5646 3.9851C74.5646 3.79894 74.6311 3.6438 74.7641 3.51969C74.8971 3.38671 75.0611 3.32022 75.2561 3.32022C75.4511 3.32022 75.6151 3.38228 75.7481 3.50639C75.8811 3.6305 75.9476 3.78564 75.9476 3.97181C75.9476 4.16684 75.8811 4.33084 75.7481 4.46381C75.624 4.59679 75.46 4.66328 75.2561 4.66328ZM78.5081 13.187V5.32816C78.5081 4.7076 78.6898 4.20673 79.0533 3.82553C79.4167 3.44434 79.9398 3.25374 80.6224 3.25374C80.8883 3.25374 81.1454 3.2892 81.3936 3.36012C81.6419 3.43104 81.8502 3.54185 82.0186 3.69256L81.6995 4.39733C81.5665 4.28208 81.4114 4.19786 81.2341 4.14467C81.0568 4.08262 80.8662 4.05159 80.6623 4.05159C80.2633 4.05159 79.9575 4.1624 79.7447 4.38403C79.532 4.60566 79.4256 4.93366 79.4256 5.36805V6.43185L79.4522 6.87067V13.187H78.5081ZM77.2581 6.99035V6.20579H81.5798V6.99035H77.2581ZM82.8564 13.187V6.20579H83.8005V13.187H82.8564ZM83.3351 4.66328C83.1401 4.66328 82.9761 4.59679 82.8431 4.46381C82.7101 4.33084 82.6436 4.17127 82.6436 3.9851C82.6436 3.79894 82.7101 3.6438 82.8431 3.51969C82.9761 3.38671 83.1401 3.32022 83.3351 3.32022C83.5301 3.32022 83.6941 3.38228 83.8271 3.50639C83.9601 3.6305 84.0266 3.78564 84.0266 3.97181C84.0266 4.16684 83.9601 4.33084 83.8271 4.46381C83.703 4.59679 83.539 4.66328 83.3351 4.66328ZM89.4171 13.2535C88.6901 13.2535 88.0518 13.1028 87.5022 12.8014C86.9526 12.4911 86.5226 12.07 86.2123 11.5381C85.9021 10.9973 85.7469 10.3812 85.7469 9.68975C85.7469 8.99828 85.8932 8.38659 86.1857 7.85469C86.4872 7.32279 86.895 6.90613 87.4091 6.60472C87.9322 6.29444 88.5173 6.13931 89.1644 6.13931C89.8204 6.13931 90.4011 6.29001 90.9064 6.59142C91.4206 6.88397 91.8239 7.30063 92.1165 7.84139C92.409 8.3733 92.5553 8.98942 92.5553 9.68975C92.5553 9.73408 92.5508 9.78284 92.542 9.83603C92.542 9.88035 92.542 9.92911 92.542 9.9823H86.465V9.27753H92.0367L91.6643 9.55678C91.6643 9.05147 91.5535 8.60379 91.3319 8.21373C91.1191 7.8148 90.8266 7.50452 90.4543 7.2829C90.0819 7.06127 89.652 6.95046 89.1644 6.95046C88.6857 6.95046 88.2557 7.06127 87.8745 7.2829C87.4933 7.50452 87.1964 7.8148 86.9836 8.21373C86.7708 8.61265 86.6645 9.0692 86.6645 9.58337V9.72965C86.6645 10.2615 86.7797 10.7314 87.0102 11.1392C87.2496 11.5381 87.5776 11.8528 87.9942 12.0833C88.4197 12.3049 88.9029 12.4158 89.4437 12.4158C89.8692 12.4158 90.2637 12.3404 90.6271 12.1897C90.9995 12.039 91.3186 11.8085 91.5846 11.4982L92.1165 12.1099C91.8062 12.4822 91.4161 12.7659 90.9463 12.961C90.4853 13.156 89.9756 13.2535 89.4171 13.2535ZM97.2562 13.2535C96.5913 13.2535 95.9929 13.1028 95.461 12.8014C94.938 12.5 94.5257 12.0833 94.2243 11.5514C93.9229 11.0106 93.7722 10.3901 93.7722 9.68975C93.7722 8.98055 93.9229 8.36 94.2243 7.8281C94.5257 7.29619 94.938 6.88397 95.461 6.59142C95.9929 6.29001 96.5913 6.13931 97.2562 6.13931C97.8679 6.13931 98.4131 6.27671 98.8918 6.55153C99.3794 6.82635 99.765 7.22971 100.049 7.76161C100.341 8.28465 100.487 8.92736 100.487 9.68975C100.487 10.4433 100.346 11.086 100.062 11.6179C99.7783 12.1498 99.3926 12.5576 98.9051 12.8413C98.4264 13.1161 97.8767 13.2535 97.2562 13.2535ZM97.3227 12.4158C97.8191 12.4158 98.2624 12.3049 98.6524 12.0833C99.0513 11.8528 99.3616 11.5337 99.5832 11.1259C99.8137 10.7092 99.929 10.2305 99.929 9.68975C99.929 9.14012 99.8137 8.66141 99.5832 8.25362C99.3616 7.84583 99.0513 7.53112 98.6524 7.30949C98.2624 7.079 97.8191 6.96376 97.3227 6.96376C96.8351 6.96376 96.3963 7.079 96.0062 7.30949C95.6161 7.53112 95.3059 7.84583 95.0754 8.25362C94.8449 8.66141 94.7296 9.14012 94.7296 9.68975C94.7296 10.2305 94.8449 10.7092 95.0754 11.1259C95.3059 11.5337 95.6161 11.8528 96.0062 12.0833C96.3963 12.3049 96.8351 12.4158 97.3227 12.4158ZM99.9556 13.187V11.086L100.049 9.67646L99.9157 8.26692V3.32022H100.86V13.187H99.9556Z" fill="white"/>
<path d="M56.5276 29.5537L53.4825 20.2454H55.7165L58.3627 28.4899H57.2457L60.0116 20.2454H62.0062L64.6657 28.4899H63.5886L66.3013 20.2454H68.3625L65.3173 29.5537H63.0035L60.6499 22.3198H61.2616L58.8414 29.5537H56.5276ZM72.4368 29.6601C71.6212 29.6601 70.9032 29.5005 70.2826 29.1814C69.6709 28.8622 69.1966 28.4279 68.8598 27.8782C68.5229 27.3197 68.3545 26.6859 68.3545 25.9767C68.3545 25.2586 68.5185 24.6247 68.8465 24.0751C69.1833 23.5166 69.6399 23.0822 70.2161 22.772C70.7923 22.4528 71.4439 22.2932 72.1709 22.2932C72.8712 22.2932 73.5006 22.444 74.0591 22.7454C74.6265 23.0379 75.0742 23.4634 75.4022 24.0219C75.7302 24.5716 75.8942 25.232 75.8942 26.0033C75.8942 26.083 75.8897 26.1761 75.8809 26.2825C75.872 26.38 75.8631 26.4731 75.8543 26.5618H70.0432V25.3517H74.7639L73.966 25.7107C73.966 25.3384 73.8907 25.0148 73.74 24.74C73.5893 24.4652 73.3809 24.2524 73.115 24.1017C72.849 23.9421 72.5388 23.8624 72.1841 23.8624C71.8295 23.8624 71.5148 23.9421 71.24 24.1017C70.9741 24.2524 70.7657 24.4696 70.615 24.7533C70.4643 25.0281 70.389 25.3561 70.389 25.7373V26.0565C70.389 26.4465 70.4732 26.7923 70.6416 27.0937C70.8189 27.3862 71.0627 27.6123 71.373 27.7718C71.6921 27.9225 72.0645 27.9979 72.49 27.9979C72.8712 27.9979 73.2036 27.9403 73.4873 27.825C73.7799 27.7098 74.0458 27.5369 74.2852 27.3064L75.3889 28.5032C75.0609 28.8755 74.6486 29.1636 74.1522 29.3675C73.6557 29.5626 73.084 29.6601 72.4368 29.6601ZM81.5039 29.6601C80.8744 29.6601 80.3337 29.5271 79.8816 29.2612C79.4294 28.9952 79.0837 28.5919 78.8444 28.0511C78.605 27.5015 78.4853 26.81 78.4853 25.9767C78.4853 25.1345 78.6094 24.443 78.8577 23.9022C79.1147 23.3615 79.4693 22.9581 79.9215 22.6922C80.3736 22.4262 80.901 22.2932 81.5039 22.2932C82.1776 22.2932 82.7804 22.444 83.3123 22.7454C83.8531 23.0468 84.2786 23.4723 84.5889 24.0219C84.908 24.5716 85.0676 25.2231 85.0676 25.9767C85.0676 26.7213 84.908 27.3685 84.5889 27.9181C84.2786 28.4677 83.8531 28.8977 83.3123 29.208C82.7804 29.5094 82.1776 29.6601 81.5039 29.6601ZM77.2752 29.5537V19.6869H79.3497V23.8491L79.2167 25.9634L79.2566 28.091V29.5537H77.2752ZM81.1448 27.958C81.4906 27.958 81.7964 27.8782 82.0624 27.7186C82.3372 27.5591 82.5544 27.333 82.7139 27.0405C82.8824 26.7391 82.9666 26.3845 82.9666 25.9767C82.9666 25.56 82.8824 25.2054 82.7139 24.9129C82.5544 24.6203 82.3372 24.3943 82.0624 24.2347C81.7964 24.0751 81.4906 23.9953 81.1448 23.9953C80.7991 23.9953 80.4888 24.0751 80.214 24.2347C79.9392 24.3943 79.722 24.6203 79.5624 24.9129C79.4029 25.2054 79.3231 25.56 79.3231 25.9767C79.3231 26.3845 79.4029 26.7391 79.5624 27.0405C79.722 27.333 79.9392 27.5591 80.214 27.7186C80.4888 27.8782 80.7991 27.958 81.1448 27.958ZM86.6025 29.5537V20.2454H88.3844L92.3471 26.8144H91.403L95.2991 20.2454H97.0677L97.0943 29.5537H95.0731L95.0598 23.3438H95.4321L92.3205 28.5697H91.3498L88.1717 23.3438H88.6238V29.5537H86.6025ZM102.561 29.6601C101.798 29.6601 101.12 29.5005 100.526 29.1814C99.941 28.8622 99.4756 28.4279 99.1299 27.8782C98.793 27.3197 98.6246 26.6859 98.6246 25.9767C98.6246 25.2586 98.793 24.6247 99.1299 24.0751C99.4756 23.5166 99.941 23.0822 100.526 22.772C101.12 22.4528 101.798 22.2932 102.561 22.2932C103.314 22.2932 103.988 22.4528 104.582 22.772C105.176 23.0822 105.641 23.5122 105.978 24.0618C106.315 24.6115 106.483 25.2497 106.483 25.9767C106.483 26.6859 106.315 27.3197 105.978 27.8782C105.641 28.4279 105.176 28.8622 104.582 29.1814C103.988 29.5005 103.314 29.6601 102.561 29.6601ZM102.561 27.958C102.906 27.958 103.217 27.8782 103.491 27.7186C103.766 27.5591 103.983 27.333 104.143 27.0405C104.303 26.7391 104.382 26.3845 104.382 25.9767C104.382 25.56 104.303 25.2054 104.143 24.9129C103.983 24.6203 103.766 24.3943 103.491 24.2347C103.217 24.0751 102.906 23.9953 102.561 23.9953C102.215 23.9953 101.905 24.0751 101.63 24.2347C101.355 24.3943 101.133 24.6203 100.965 24.9129C100.805 25.2054 100.726 25.56 100.726 25.9767C100.726 26.3845 100.805 26.7391 100.965 27.0405C101.133 27.333 101.355 27.5591 101.63 27.7186C101.905 27.8782 102.215 27.958 102.561 27.958ZM112.218 22.2932C112.786 22.2932 113.291 22.4085 113.734 22.639C114.186 22.8606 114.541 23.2063 114.798 23.6762C115.055 24.1372 115.184 24.7311 115.184 25.4581V29.5537H113.109V25.7772C113.109 25.201 112.981 24.7755 112.724 24.5006C112.475 24.2258 112.121 24.0884 111.66 24.0884C111.332 24.0884 111.035 24.1593 110.769 24.3012C110.512 24.4342 110.308 24.6425 110.157 24.9262C110.015 25.2098 109.944 25.5733 109.944 26.0166V29.5537H107.87V22.3996H109.851V24.381L109.479 23.7826C109.736 23.3039 110.104 22.936 110.583 22.6789C111.061 22.4218 111.607 22.2932 112.218 22.2932ZM120.666 29.6601C119.851 29.6601 119.133 29.5005 118.512 29.1814C117.901 28.8622 117.426 28.4279 117.089 27.8782C116.753 27.3197 116.584 26.6859 116.584 25.9767C116.584 25.2586 116.748 24.6247 117.076 24.0751C117.413 23.5166 117.869 23.0822 118.446 22.772C119.022 22.4528 119.674 22.2932 120.4 22.2932C121.101 22.2932 121.73 22.444 122.289 22.7454C122.856 23.0379 123.304 23.4634 123.632 24.0219C123.96 24.5716 124.124 25.232 124.124 26.0033C124.124 26.083 124.119 26.1761 124.11 26.2825C124.102 26.38 124.093 26.4731 124.084 26.5618H118.273V25.3517H122.993L122.196 25.7107C122.196 25.3384 122.12 25.0148 121.97 24.74C121.819 24.4652 121.611 24.2524 121.345 24.1017C121.079 23.9421 120.768 23.8624 120.414 23.8624C120.059 23.8624 119.744 23.9421 119.47 24.1017C119.204 24.2524 118.995 24.4696 118.845 24.7533C118.694 25.0281 118.619 25.3561 118.619 25.7373V26.0565C118.619 26.4465 118.703 26.7923 118.871 27.0937C119.049 27.3862 119.292 27.6123 119.603 27.7718C119.922 27.9225 120.294 27.9979 120.72 27.9979C121.101 27.9979 121.433 27.9403 121.717 27.825C122.009 27.7098 122.275 27.5369 122.515 27.3064L123.618 28.5032C123.29 28.8755 122.878 29.1636 122.382 29.3675C121.885 29.5626 121.314 29.6601 120.666 29.6601ZM126.279 32.2398C125.907 32.2398 125.539 32.1822 125.176 32.0669C124.812 31.9517 124.515 31.7921 124.285 31.5882L125.043 30.1122C125.202 30.254 125.384 30.3649 125.588 30.4446C125.801 30.5244 126.009 30.5643 126.213 30.5643C126.505 30.5643 126.736 30.4934 126.904 30.3516C127.082 30.2186 127.241 29.9925 127.383 29.6734L127.755 28.7958L127.915 28.5697L130.481 22.3996H132.476L129.245 29.9925C129.014 30.5688 128.748 31.0209 128.447 31.3489C128.154 31.6769 127.826 31.9074 127.463 32.0404C127.108 32.1733 126.714 32.2398 126.279 32.2398ZM127.503 29.833L124.311 22.3996H126.452L128.925 28.3835L127.503 29.833Z" fill="white"/>
</svg>
