<svg width="17" height="20" viewBox="0 0 17 20" fill="none" xmlns="http://www.w3.org/2000/svg">
<path fill-rule="evenodd" clip-rule="evenodd" d="M8.5 2C6.90379 2 5.6 3.30299 5.6 4.92327C5.6 6.54356 6.90379 7.84654 8.5 7.84654C10.0962 7.84654 11.4 6.54356 11.4 4.92327C11.4 3.30298 10.0962 2 8.5 2ZM3.6 4.92327C3.6 2.20965 5.78801 0 8.5 0C11.212 0 13.4 2.20965 13.4 4.92327C13.4 7.63689 11.212 9.84654 8.5 9.84654C5.78801 9.84654 3.6 7.63689 3.6 4.92327ZM4.9 13.4612C3.30437 13.4612 2 14.7645 2 16.3864V18H15V16.3864C15 14.7645 13.6956 13.4612 12.1 13.4612H4.9ZM0 16.3864C0 13.6719 2.18781 11.4612 4.9 11.4612H12.1C14.8122 11.4612 17 13.6719 17 16.3864V20H0V16.3864Z" fill="#504E57"/>
</svg>
